<svg xmlns="http://www.w3.org/2000/svg" version="1.1" xmlns:xlink="http://www.w3.org/1999/xlink" xmlns:svgjs="http://svgjs.dev/svgjs" width="2000" height="681" viewBox="0 0 2000 681"><g transform="matrix(1,0,0,1,-1.2121212121213603,-0.31996628757576673)"><svg viewBox="0 0 396 135" data-background-color="#ffffff" preserveAspectRatio="xMidYMid meet" height="681" width="2000" xmlns="http://www.w3.org/2000/svg" xmlns:xlink="http://www.w3.org/1999/xlink"><g id="tight-bounds" transform="matrix(1,0,0,1,0.24000000000003752,0.06342944026832242)"><svg viewBox="0 0 395.5199999999999 134.87314111946338" height="134.87314111946338" width="395.5199999999999"><g><svg viewBox="0 0 628.9947582849437 214.48851839999995" height="134.87314111946338" width="395.5199999999999"><g transform="matrix(1,0,0,1,233.47475828494376,33.43738928834284)"><svg viewBox="0 0 395.52 147.61373982331426" height="147.61373982331426" width="395.52"><g id="textblocktransform"><svg viewBox="0 0 395.52 147.61373982331426" height="147.61373982331426" width="395.52" id="textblock"><g><svg viewBox="0 0 395.52 80.42426966292133" height="80.42426966292133" width="395.52"><g transform="matrix(1,0,0,1,0,0)"><svg width="395.52" viewBox="3.44 -39.5 223.79 45.51" height="80.42426966292133" data-palette-color="url(#cc08884c-95af-4db1-9edd-4c1b63cd5ea3)"></svg></g></svg></g><g transform="matrix(1,0,0,1,163.31020799999996,99.41050954786515)"><svg viewBox="0 0 232.20979200000002 48.20323027544911" height="48.20323027544911" width="232.20979200000002"><g transform="matrix(1,0,0,1,0,0)"><svg width="232.20979200000002" viewBox="1.39 -21.25 104.37 21.67" height="48.20323027544911" data-palette-color="url(#39035a6b-4b96-455d-a53c-12f2611658d6)"></svg></g></svg></g></svg></g></svg></g><g><svg viewBox="0 0 214.48851839999995 214.48851839999995" height="214.48851839999995" width="214.48851839999995"><g><svg></svg></g><g id="icon-0"><svg viewBox="0 0 214.48851839999995 214.48851839999995" height="214.48851839999995" width="214.48851839999995"><g></g><g transform="matrix(1,0,0,1,27.80406719999999,27.80406719999999)"><svg viewBox="0 0 158.88038399999996 158.88038399999996" height="158.88038399999996" width="158.88038399999996"><g><svg xmlns="http://www.w3.org/2000/svg" xmlns:xlink="http://www.w3.org/1999/xlink" version="1.1" x="0" y="0" viewBox="0 0 512 512" enable-background="new 0 0 512 512" xml:space="preserve" height="158.88038399999996" width="158.88038399999996" class="icon-dxe-0" data-fill-palette-color="quaternary" id="dxe-0"><path d="M480 0H32C14.313 0 0 14.328 0 32V480C0 497.688 14.313 512 32 512H480C497.688 512 512 497.687 512 480V32C512 14.328 497.688 0 480 0M432 448H160V464C160 472.844 152.844 480 144 480S128 472.844 128 464V448H80C71.156 448 64 440.844 64 432S71.156 416 80 416H128V400C128 391.156 135.156 384 144 384S160 391.156 160 400V416H432C440.844 416 448 423.156 448 432S440.844 448 432 448M480 352H32V32H480zM356.219 176.125C371.5 184.859 371.5 199.141 356.219 207.875L187.781 304.125C172.5 312.844 160 305.594 160 288V96C160 78.406 172.5 71.141 187.781 79.875z" fill="#ffffff" data-fill-palette-color="quaternary"></path></svg></g></svg></g></svg></g></svg></g></svg></g><defs></defs><mask id="ecf8998a-6c7a-48df-a200-92f1aca08a51"><g id="SvgjsG1038"><svg viewBox="0 0 395.5199999999999 134.87314111946338" height="134.87314111946338" width="395.5199999999999"><g><svg viewBox="0 0 628.9947582849437 214.48851839999995" height="134.87314111946338" width="395.5199999999999"><g transform="matrix(1,0,0,1,233.47475828494376,33.43738928834284)"><svg viewBox="0 0 395.52 147.61373982331426" height="147.61373982331426" width="395.52"><g id="SvgjsG1037"><svg viewBox="0 0 395.52 147.61373982331426" height="147.61373982331426" width="395.52" id="SvgjsSvg1036"><g><svg viewBox="0 0 395.52 80.42426966292133" height="80.42426966292133" width="395.52"><g transform="matrix(1,0,0,1,0,0)"><svg width="395.52" viewBox="3.44 -39.5 223.79 45.51" height="80.42426966292133" data-palette-color="url(#cc08884c-95af-4db1-9edd-4c1b63cd5ea3)"><path d="M47.07-16.46L47.07-16.46Q47.07-13.55 46.39-10.4 45.7-7.25 44.47-4.26 43.24-1.27 41.5 1.39 39.77 4.05 37.65 6.01L37.65 6.01 34.55 4.32Q35.25 3.05 35.84 1.46 36.43-0.12 36.91-1.88 37.4-3.64 37.77-5.49 38.13-7.35 38.39-9.19 38.65-11.04 38.77-12.77 38.89-14.5 38.89-16.02L38.89-16.02Q38.89-16.87 38.84-17.87 38.79-18.87 38.64-19.87 38.48-20.87 38.16-21.79 37.84-22.71 37.29-23.43 36.74-24.15 35.93-24.57 35.11-25 33.96-25L33.96-25Q32.84-25 32.04-24.4 31.25-23.8 30.69-22.85 30.13-21.9 29.8-20.7 29.47-19.51 29.3-18.3 29.13-17.09 29.06-15.99 29-14.89 29-14.14L29-14.14 29 0 20.78 0 20.78-13.13Q20.78-13.99 20.8-15.2 20.83-16.41 20.74-17.72 20.65-19.04 20.42-20.35 20.19-21.66 19.69-22.68 19.19-23.71 18.33-24.35 17.48-25 16.19-25L16.19-25Q15.09-25 14.34-24.39 13.6-23.78 13.1-22.81 12.6-21.85 12.32-20.64 12.04-19.43 11.9-18.23 11.77-17.02 11.74-15.93 11.72-14.84 11.72-14.14L11.72-14.14 11.72 0 3.44 0 3.44-28.2 6.62-28.2 9.64-21.63Q10.67-25.05 12.88-26.97 15.09-28.88 18.75-28.88L18.75-28.88Q22.05-28.88 24.22-27.51 26.39-26.15 27.64-23.07L27.64-23.07Q28.34-24.41 29.21-25.49 30.08-26.56 31.14-27.32 32.2-28.08 33.5-28.48 34.79-28.88 36.35-28.88L36.35-28.88Q39.23-28.88 41.27-27.94 43.31-27 44.6-25.34 45.9-23.68 46.48-21.4 47.07-19.12 47.07-16.46ZM60.81-9.47L60.81 0 52.56 0 52.56-38.57 60.81-38.57 60.81-13.26Q62.84-14.72 64.8-16.48 66.77-18.24 68.55-20.18 70.33-22.12 71.86-24.15 73.39-26.17 74.53-28.2L74.53-28.2 80.15-28.2Q78.44-25.32 76.1-22.45 73.75-19.58 70.99-16.97L70.99-16.97 80.25 0 71.14 0 64.57-11.77Q62.74-10.52 60.81-9.47L60.81-9.47ZM111.96-28.2L111.96 0 103.71 0 103.71-3.37Q102.24-1.37 100.18-0.4 98.12 0.56 95.65 0.56L95.65 0.56Q92.43 0.56 89.89-0.59 87.35-1.73 85.59-3.72 83.83-5.71 82.91-8.4 81.98-11.08 81.98-14.16L81.98-14.16Q81.98-17.24 82.91-19.92 83.83-22.61 85.59-24.6 87.35-26.59 89.89-27.73 92.43-28.88 95.65-28.88L95.65-28.88Q97.29-28.88 98.76-28.39 100.24-27.91 101.47-27.01 102.7-26.12 103.64-24.87 104.58-23.61 105.12-22.07L105.12-22.07 108.78-28.2 111.96-28.2ZM103.66-14.16L103.66-14.16Q103.66-15.26 103.55-16.48 103.44-17.7 103.17-18.9 102.9-20.09 102.42-21.18 101.95-22.27 101.2-23.11 100.46-23.95 99.41-24.44 98.36-24.93 96.97-24.93L96.97-24.93Q95.58-24.93 94.55-24.43 93.53-23.93 92.79-23.08 92.06-22.24 91.58-21.14 91.11-20.04 90.84-18.85 90.57-17.65 90.46-16.44 90.35-15.23 90.35-14.16L90.35-14.16Q90.35-13.09 90.46-11.87 90.57-10.64 90.84-9.45 91.11-8.25 91.58-7.15 92.06-6.05 92.79-5.21 93.53-4.37 94.55-3.87 95.58-3.37 96.97-3.37L96.97-3.37Q98.24-3.37 99.23-3.89 100.21-4.42 100.96-5.3 101.7-6.18 102.22-7.3 102.73-8.42 103.05-9.62 103.36-10.82 103.51-12 103.66-13.18 103.66-14.16ZM127.51-35.01L127.51-35.01Q127.51-34.08 127.15-33.25 126.8-32.42 126.19-31.81 125.58-31.2 124.75-30.85 123.92-30.49 122.99-30.49L122.99-30.49Q122.06-30.49 121.24-30.85 120.43-31.2 119.82-31.81 119.21-32.42 118.85-33.25 118.5-34.08 118.5-35.01L118.5-35.01Q118.5-35.94 118.85-36.76 119.21-37.57 119.82-38.18 120.43-38.79 121.24-39.15 122.06-39.5 122.99-39.5L122.99-39.5Q123.92-39.5 124.75-39.15 125.58-38.79 126.19-38.18 126.8-37.57 127.15-36.76 127.51-35.94 127.51-35.01ZM127.14-28.17L127.14 0 118.86 0 118.86-28.17 127.14-28.17ZM162.47-38.57L162.47 0 159.29 0 155.63-6.13Q155.09-4.59 154.15-3.34 153.21-2.1 151.98-1.21 150.75-0.32 149.27 0.17 147.79 0.66 146.16 0.66L146.16 0.66Q142.93 0.66 140.4-0.49 137.86-1.64 136.1-3.63 134.34-5.62 133.41-8.3 132.49-10.99 132.49-14.06L132.49-14.06Q132.49-17.14 133.41-19.82 134.34-22.51 136.1-24.49 137.86-26.46 140.4-27.61 142.93-28.76 146.16-28.76L146.16-28.76Q148.62-28.76 150.69-27.81 152.75-26.86 154.21-24.83L154.21-24.83 154.21-38.57 162.47-38.57ZM154.16-14.06L154.16-14.06Q154.16-15.04 154.02-16.21 153.87-17.38 153.55-18.58 153.24-19.78 152.72-20.9 152.21-22.02 151.47-22.9 150.72-23.78 149.73-24.3 148.74-24.83 147.48-24.83L147.48-24.83Q146.08-24.83 145.06-24.33 144.03-23.83 143.3-22.99 142.57-22.14 142.09-21.04 141.62-19.95 141.35-18.75 141.08-17.55 140.97-16.35 140.86-15.14 140.86-14.06L140.86-14.06Q140.86-12.99 140.97-11.78 141.08-10.57 141.35-9.38 141.62-8.18 142.09-7.07 142.57-5.96 143.3-5.11 144.03-4.27 145.06-3.77 146.08-3.27 147.48-3.27L147.48-3.27Q148.87-3.27 149.92-3.76 150.97-4.25 151.71-5.09 152.46-5.93 152.93-7.02 153.41-8.11 153.68-9.31 153.95-10.52 154.05-11.74 154.16-12.96 154.16-14.06ZM176.13-13.38L176.13-13.38Q177.65-13.04 179.16-12.84 180.68-12.65 182.21-12.65L182.21-12.65Q183.83-12.65 185.2-12.95 186.58-13.26 187.6-13.98 188.61-14.7 189.2-15.89 189.78-17.09 189.78-18.87L189.78-18.87Q189.78-20.31 189.39-21.51 189-22.71 188.23-23.56 187.46-24.41 186.34-24.89 185.22-25.37 183.73-25.37L183.73-25.37Q182.34-25.37 181.23-24.85 180.11-24.34 179.27-23.47 178.43-22.61 177.83-21.46 177.23-20.31 176.84-19.07 176.45-17.82 176.28-16.55 176.11-15.28 176.11-14.16L176.11-14.16Q176.11-13.96 176.11-13.77 176.11-13.57 176.13-13.38ZM196.47-18.95L196.47-18.95Q196.47-17.21 195.91-15.86 195.35-14.5 194.38-13.48 193.42-12.45 192.15-11.74 190.88-11.04 189.44-10.58 188-10.13 186.47-9.94 184.95-9.74 183.51-9.74L183.51-9.74Q181.68-9.74 179.89-10 178.11-10.25 176.38-10.82L176.38-10.82Q176.65-9.2 177.23-7.75 177.82-6.3 178.8-5.21 179.77-4.13 181.2-3.49 182.63-2.86 184.58-2.86L184.58-2.86Q185.88-2.86 187.05-3.25 188.22-3.64 189.2-4.35 190.17-5.05 190.92-6.03 191.66-7.01 192.13-8.2L192.13-8.2 195.69-6.88Q194.88-4.96 193.48-3.55 192.08-2.15 190.31-1.23 188.54-0.32 186.55 0.12 184.56 0.56 182.6 0.56L182.6 0.56Q179.38 0.56 176.65-0.52 173.91-1.61 171.94-3.56 169.96-5.52 168.84-8.23 167.71-10.94 167.71-14.16L167.71-14.16Q167.71-17.38 168.84-20.09 169.96-22.8 171.94-24.76 173.91-26.71 176.65-27.8 179.38-28.88 182.6-28.88L182.6-28.88Q184.17-28.88 185.8-28.66 187.44-28.44 188.98-27.97 190.51-27.49 191.88-26.73 193.25-25.98 194.26-24.87 195.28-23.75 195.87-22.29 196.47-20.83 196.47-18.95ZM227.23-28.2L216.12 0 208.7 0 198.45-28.2 206.7-28.2 214.22-5.74 221.52-28.2 227.23-28.2Z" opacity="1" transform="matrix(1,0,0,1,0,0)" fill="white" class="wordmark-text-0" id="SvgjsPath1035"></path></svg></g></svg></g><g transform="matrix(1,0,0,1,163.31020799999996,99.41050954786515)"><svg viewBox="0 0 232.20979200000002 48.20323027544911" height="48.20323027544911" width="232.20979200000002"><g transform="matrix(1,0,0,1,0,0)"><svg width="232.20979200000002" viewBox="1.39 -21.25 104.37 21.67" height="48.20323027544911" data-palette-color="url(#39035a6b-4b96-455d-a53c-12f2611658d6)"><path d="M16.46 0L1.39 0 11.25-17.5 2.01-17.5 2.01-20.83 17.01-20.83 7.15-3.33 16.46-3.33 16.46 0ZM31.25 0.42L31.25 0.42Q28.23 0.42 25.73-1.04 23.23-2.5 21.75-4.97 20.28-7.43 20.28-10.42L20.28-10.42Q20.28-13.44 21.75-15.89 23.23-18.33 25.73-19.79 28.23-21.25 31.25-21.25L31.25-21.25Q34.3-21.25 36.79-19.79 39.27-18.33 40.74-15.89 42.22-13.44 42.22-10.42L42.22-10.42Q42.22-7.43 40.74-4.97 39.27-2.5 36.79-1.04 34.3 0.42 31.25 0.42ZM31.25-3.13L31.25-3.13Q33.26-3.13 34.89-4.11 36.53-5.1 37.5-6.75 38.47-8.4 38.47-10.42L38.47-10.42Q38.47-12.43 37.5-14.08 36.53-15.73 34.89-16.72 33.26-17.71 31.25-17.71L31.25-17.71Q29.23-17.71 27.6-16.72 25.97-15.73 25-14.08 24.03-12.43 24.03-10.42L24.03-10.42Q24.03-8.4 25-6.75 25.97-5.1 27.6-4.11 29.23-3.13 31.25-3.13ZM56.94 0.42L56.94 0.42Q53.92 0.42 51.42-1.04 48.92-2.5 47.44-4.97 45.97-7.43 45.97-10.42L45.97-10.42Q45.97-13.44 47.44-15.89 48.92-18.33 51.42-19.79 53.92-21.25 56.94-21.25L56.94-21.25Q60-21.25 62.48-19.79 64.96-18.33 66.44-15.89 67.91-13.44 67.91-10.42L67.91-10.42Q67.91-7.43 66.44-4.97 64.96-2.5 62.48-1.04 60 0.42 56.94 0.42ZM56.94-3.13L56.94-3.13Q58.95-3.13 60.59-4.11 62.22-5.1 63.19-6.75 64.16-8.4 64.16-10.42L64.16-10.42Q64.16-12.43 63.19-14.08 62.22-15.73 60.59-16.72 58.95-17.71 56.94-17.71L56.94-17.71Q54.93-17.71 53.29-16.72 51.66-15.73 50.69-14.08 49.72-12.43 49.72-10.42L49.72-10.42Q49.72-8.4 50.69-6.75 51.66-5.1 53.29-4.11 54.93-3.13 56.94-3.13ZM76.87 0L73.12 0 73.12-20.83 76.59-20.83 76.59-17.85Q77.74-19.55 79.49-20.4 81.24-21.25 83.19-21.25L83.19-21.25Q85.31-21.25 87.08-20.26 88.85-19.27 89.92-17.5L89.92-17.5Q91.14-19.38 93.07-20.31 94.99-21.25 97.15-21.25L97.15-21.25Q99.51-21.25 101.47-20.14 103.43-19.03 104.59-17.03 105.76-15.03 105.76-12.33L105.76-12.33 105.76 0 102.01 0 102.01-11.88Q102.01-14.72 100.39-16.2 98.78-17.67 96.66-17.67L96.66-17.67Q95.34-17.67 94.11-17.08 92.87-16.49 92.09-15.24 91.31-13.99 91.31-11.98L91.31-11.98 91.31 0 87.56 0 87.56-11.88Q87.56-13.85 86.78-15.14 86-16.42 84.77-17.07 83.53-17.71 82.21-17.71L82.21-17.71Q80.93-17.71 79.7-17.12 78.46-16.53 77.67-15.28 76.87-14.03 76.87-11.98L76.87-11.98 76.87 0Z" opacity="1" transform="matrix(1,0,0,1,0,0)" fill="black" class="slogan-text-1" id="SvgjsPath1034"></path></svg></g></svg></g></svg></g></svg></g><g><svg viewBox="0 0 214.48851839999995 214.48851839999995" height="214.48851839999995" width="214.48851839999995"><g><svg></svg></g><g id="SvgjsG1033"><svg viewBox="0 0 214.48851839999995 214.48851839999995" height="214.48851839999995" width="214.48851839999995"><g><rect width="195.02567135999996" height="195.02567135999996" x="9.731423519999993" y="9.731423519999993" fill="black"></rect><rect width="195.02567135999996" height="195.02567135999996" x="19.46284703999999" y="-3.552713678800501e-15" fill="black" opacity="0.5"></rect></g><g transform="matrix(1,0,0,1,27.80406719999999,27.80406719999999)"><svg viewBox="0 0 158.88038399999996 158.88038399999996" height="158.88038399999996" width="158.88038399999996"><g><svg xmlns="http://www.w3.org/2000/svg" xmlns:xlink="http://www.w3.org/1999/xlink" version="1.1" x="0" y="0" viewBox="0 0 512 512" enable-background="new 0 0 512 512" xml:space="preserve" height="158.88038399999996" width="158.88038399999996" class="icon-dxe-0" data-fill-palette-color="quaternary" id="SvgjsSvg1032"><path d="M480 0H32C14.313 0 0 14.328 0 32V480C0 497.688 14.313 512 32 512H480C497.688 512 512 497.687 512 480V32C512 14.328 497.688 0 480 0M432 448H160V464C160 472.844 152.844 480 144 480S128 472.844 128 464V448H80C71.156 448 64 440.844 64 432S71.156 416 80 416H128V400C128 391.156 135.156 384 144 384S160 391.156 160 400V416H432C440.844 416 448 423.156 448 432S440.844 448 432 448M480 352H32V32H480zM356.219 176.125C371.5 184.859 371.5 199.141 356.219 207.875L187.781 304.125C172.5 312.844 160 305.594 160 288V96C160 78.406 172.5 71.141 187.781 79.875z" fill="black"></path></svg></g></svg></g></svg></g></svg></g></svg></g><defs><mask></mask></defs></svg><rect width="395.5199999999999" height="134.87314111946338" fill="black" stroke="none" visibility="hidden"></rect></g></mask><linearGradient x1="0" x2="1" y1="0.578" y2="0.595" id="cc08884c-95af-4db1-9edd-4c1b63cd5ea3"><stop stop-color="#6ee2f5" offset="0"></stop><stop stop-color="#6454f0" offset="1"></stop></linearGradient><rect width="395.5199999999999" height="134.87314111946338" fill="url(#cc08884c-95af-4db1-9edd-4c1b63cd5ea3)" mask="url(#ecf8998a-6c7a-48df-a200-92f1aca08a51)" data-fill-palette-color="primary"></rect><mask id="ad610461-c379-4b6a-9e96-a52af0a9c259"><g id="SvgjsG1051"><svg viewBox="0 0 395.5199999999999 134.87314111946338" height="134.87314111946338" width="395.5199999999999"><g><svg viewBox="0 0 628.9947582849437 214.48851839999995" height="134.87314111946338" width="395.5199999999999"><g transform="matrix(1,0,0,1,233.47475828494376,33.43738928834284)"><svg viewBox="0 0 395.52 147.61373982331426" height="147.61373982331426" width="395.52"><g id="SvgjsG1050"><svg viewBox="0 0 395.52 147.61373982331426" height="147.61373982331426" width="395.52" id="SvgjsSvg1049"><g><svg viewBox="0 0 395.52 80.42426966292133" height="80.42426966292133" width="395.52"><g transform="matrix(1,0,0,1,0,0)"><svg width="395.52" viewBox="3.44 -39.5 223.79 45.51" height="80.42426966292133" data-palette-color="url(#cc08884c-95af-4db1-9edd-4c1b63cd5ea3)"></svg></g></svg></g><g transform="matrix(1,0,0,1,163.31020799999996,99.41050954786515)"><svg viewBox="0 0 232.20979200000002 48.20323027544911" height="48.20323027544911" width="232.20979200000002"><g transform="matrix(1,0,0,1,0,0)"><svg width="232.20979200000002" viewBox="1.39 -21.25 104.37 21.67" height="48.20323027544911" data-palette-color="url(#39035a6b-4b96-455d-a53c-12f2611658d6)"><path d="M16.46 0L1.39 0 11.25-17.5 2.01-17.5 2.01-20.83 17.01-20.83 7.15-3.33 16.46-3.33 16.46 0ZM31.25 0.42L31.25 0.42Q28.23 0.42 25.73-1.04 23.23-2.5 21.75-4.97 20.28-7.43 20.28-10.42L20.28-10.42Q20.28-13.44 21.75-15.89 23.23-18.33 25.73-19.79 28.23-21.25 31.25-21.25L31.25-21.25Q34.3-21.25 36.79-19.79 39.27-18.33 40.74-15.89 42.22-13.44 42.22-10.42L42.22-10.42Q42.22-7.43 40.74-4.97 39.27-2.5 36.79-1.04 34.3 0.42 31.25 0.42ZM31.25-3.13L31.25-3.13Q33.26-3.13 34.89-4.11 36.53-5.1 37.5-6.75 38.47-8.4 38.47-10.42L38.47-10.42Q38.47-12.43 37.5-14.08 36.53-15.73 34.89-16.72 33.26-17.71 31.25-17.71L31.25-17.71Q29.23-17.71 27.6-16.72 25.97-15.73 25-14.08 24.03-12.43 24.03-10.42L24.03-10.42Q24.03-8.4 25-6.75 25.97-5.1 27.6-4.11 29.23-3.13 31.25-3.13ZM56.94 0.42L56.94 0.42Q53.92 0.42 51.42-1.04 48.92-2.5 47.44-4.97 45.97-7.43 45.97-10.42L45.97-10.42Q45.97-13.44 47.44-15.89 48.92-18.33 51.42-19.79 53.92-21.25 56.94-21.25L56.94-21.25Q60-21.25 62.48-19.79 64.96-18.33 66.44-15.89 67.91-13.44 67.91-10.42L67.91-10.42Q67.91-7.43 66.44-4.97 64.96-2.5 62.48-1.04 60 0.42 56.94 0.42ZM56.94-3.13L56.94-3.13Q58.95-3.13 60.59-4.11 62.22-5.1 63.19-6.75 64.16-8.4 64.16-10.42L64.16-10.42Q64.16-12.43 63.19-14.08 62.22-15.73 60.59-16.72 58.95-17.71 56.94-17.71L56.94-17.71Q54.93-17.71 53.29-16.72 51.66-15.73 50.69-14.08 49.72-12.43 49.72-10.42L49.72-10.42Q49.72-8.4 50.69-6.75 51.66-5.1 53.29-4.11 54.93-3.13 56.94-3.13ZM76.87 0L73.12 0 73.12-20.83 76.59-20.83 76.59-17.85Q77.74-19.55 79.49-20.4 81.24-21.25 83.19-21.25L83.19-21.25Q85.31-21.25 87.08-20.26 88.85-19.27 89.92-17.5L89.92-17.5Q91.14-19.38 93.07-20.31 94.99-21.25 97.15-21.25L97.15-21.25Q99.51-21.25 101.47-20.14 103.43-19.03 104.59-17.03 105.76-15.03 105.76-12.33L105.76-12.33 105.76 0 102.01 0 102.01-11.88Q102.01-14.72 100.39-16.2 98.78-17.67 96.66-17.67L96.66-17.67Q95.34-17.67 94.11-17.08 92.87-16.49 92.09-15.24 91.31-13.99 91.31-11.98L91.31-11.98 91.31 0 87.56 0 87.56-11.88Q87.56-13.85 86.78-15.14 86-16.42 84.77-17.07 83.53-17.71 82.21-17.71L82.21-17.71Q80.93-17.71 79.7-17.12 78.46-16.53 77.67-15.28 76.87-14.03 76.87-11.98L76.87-11.98 76.87 0Z" opacity="1" transform="matrix(1,0,0,1,0,0)" fill="white" class="slogan-text-1" id="SvgjsPath1048"></path></svg></g></svg></g></svg></g></svg></g><g><svg viewBox="0 0 214.48851839999995 214.48851839999995" height="214.48851839999995" width="214.48851839999995"><g><svg></svg></g><g id="SvgjsG1047"><svg viewBox="0 0 214.48851839999995 214.48851839999995" height="214.48851839999995" width="214.48851839999995"><g><rect width="195.02567135999996" height="195.02567135999996" x="9.731423519999993" y="9.731423519999993" fill="black"></rect><rect width="195.02567135999996" height="195.02567135999996" x="19.46284703999999" y="-3.552713678800501e-15" fill="black" opacity="0.5"></rect></g><g transform="matrix(1,0,0,1,27.80406719999999,27.80406719999999)"><svg viewBox="0 0 158.88038399999996 158.88038399999996" height="158.88038399999996" width="158.88038399999996"><g><svg xmlns="http://www.w3.org/2000/svg" xmlns:xlink="http://www.w3.org/1999/xlink" version="1.1" x="0" y="0" viewBox="0 0 512 512" enable-background="new 0 0 512 512" xml:space="preserve" height="158.88038399999996" width="158.88038399999996" class="icon-dxe-0" data-fill-palette-color="quaternary" id="SvgjsSvg1046"><path d="M480 0H32C14.313 0 0 14.328 0 32V480C0 497.688 14.313 512 32 512H480C497.688 512 512 497.687 512 480V32C512 14.328 497.688 0 480 0M432 448H160V464C160 472.844 152.844 480 144 480S128 472.844 128 464V448H80C71.156 448 64 440.844 64 432S71.156 416 80 416H128V400C128 391.156 135.156 384 144 384S160 391.156 160 400V416H432C440.844 416 448 423.156 448 432S440.844 448 432 448M480 352H32V32H480zM356.219 176.125C371.5 184.859 371.5 199.141 356.219 207.875L187.781 304.125C172.5 312.844 160 305.594 160 288V96C160 78.406 172.5 71.141 187.781 79.875z" fill="black"></path></svg></g></svg></g></svg></g></svg></g></svg></g><defs><mask></mask></defs><mask><g id="SvgjsG1045"><svg viewBox="0 0 395.5199999999999 134.87314111946338" height="134.87314111946338" width="395.5199999999999"><g><svg viewBox="0 0 628.9947582849437 214.48851839999995" height="134.87314111946338" width="395.5199999999999"><g transform="matrix(1,0,0,1,233.47475828494376,33.43738928834284)"><svg viewBox="0 0 395.52 147.61373982331426" height="147.61373982331426" width="395.52"><g id="SvgjsG1044"><svg viewBox="0 0 395.52 147.61373982331426" height="147.61373982331426" width="395.52" id="SvgjsSvg1043"><g><svg viewBox="0 0 395.52 80.42426966292133" height="80.42426966292133" width="395.52"><g transform="matrix(1,0,0,1,0,0)"><svg width="395.52" viewBox="3.44 -39.5 223.79 45.51" height="80.42426966292133" data-palette-color="url(#cc08884c-95af-4db1-9edd-4c1b63cd5ea3)"><path d="M47.07-16.46L47.07-16.46Q47.07-13.55 46.39-10.4 45.7-7.25 44.47-4.26 43.24-1.27 41.5 1.39 39.77 4.05 37.65 6.01L37.65 6.01 34.55 4.32Q35.25 3.05 35.84 1.46 36.43-0.12 36.91-1.88 37.4-3.64 37.77-5.49 38.13-7.35 38.39-9.19 38.65-11.04 38.77-12.77 38.89-14.5 38.89-16.02L38.89-16.02Q38.89-16.87 38.84-17.87 38.79-18.87 38.64-19.87 38.48-20.87 38.16-21.79 37.84-22.71 37.29-23.43 36.74-24.15 35.93-24.57 35.11-25 33.96-25L33.96-25Q32.84-25 32.04-24.4 31.25-23.8 30.69-22.85 30.13-21.9 29.8-20.7 29.47-19.51 29.3-18.3 29.13-17.09 29.06-15.99 29-14.89 29-14.14L29-14.14 29 0 20.78 0 20.78-13.13Q20.78-13.99 20.8-15.2 20.83-16.41 20.74-17.72 20.65-19.04 20.42-20.35 20.19-21.66 19.69-22.68 19.19-23.71 18.33-24.35 17.48-25 16.19-25L16.19-25Q15.09-25 14.34-24.39 13.6-23.78 13.1-22.81 12.6-21.85 12.32-20.64 12.04-19.43 11.9-18.23 11.77-17.02 11.74-15.93 11.72-14.84 11.72-14.14L11.72-14.14 11.72 0 3.44 0 3.44-28.2 6.62-28.2 9.64-21.63Q10.67-25.05 12.88-26.97 15.09-28.88 18.75-28.88L18.75-28.88Q22.05-28.88 24.22-27.51 26.39-26.15 27.64-23.07L27.64-23.07Q28.34-24.41 29.21-25.49 30.08-26.56 31.14-27.32 32.2-28.08 33.5-28.48 34.79-28.88 36.35-28.88L36.35-28.88Q39.23-28.88 41.27-27.94 43.31-27 44.6-25.34 45.9-23.68 46.48-21.4 47.07-19.12 47.07-16.46ZM60.81-9.47L60.81 0 52.56 0 52.56-38.57 60.81-38.57 60.81-13.26Q62.84-14.72 64.8-16.48 66.77-18.24 68.55-20.18 70.33-22.12 71.86-24.15 73.39-26.17 74.53-28.2L74.53-28.2 80.15-28.2Q78.44-25.32 76.1-22.45 73.75-19.58 70.99-16.97L70.99-16.97 80.25 0 71.14 0 64.57-11.77Q62.74-10.52 60.81-9.47L60.81-9.47ZM111.96-28.2L111.96 0 103.71 0 103.71-3.37Q102.24-1.37 100.18-0.4 98.12 0.56 95.65 0.56L95.65 0.56Q92.43 0.56 89.89-0.59 87.35-1.73 85.59-3.72 83.83-5.71 82.91-8.4 81.98-11.08 81.98-14.16L81.98-14.16Q81.98-17.24 82.91-19.92 83.83-22.61 85.59-24.6 87.35-26.59 89.89-27.73 92.43-28.88 95.65-28.88L95.65-28.88Q97.29-28.88 98.76-28.39 100.24-27.91 101.47-27.01 102.7-26.12 103.64-24.87 104.58-23.61 105.12-22.07L105.12-22.07 108.78-28.2 111.96-28.2ZM103.66-14.16L103.66-14.16Q103.66-15.26 103.55-16.48 103.44-17.7 103.17-18.9 102.9-20.09 102.42-21.18 101.95-22.27 101.2-23.11 100.46-23.95 99.41-24.44 98.36-24.93 96.97-24.93L96.97-24.93Q95.58-24.93 94.55-24.43 93.53-23.93 92.79-23.08 92.06-22.24 91.58-21.14 91.11-20.04 90.84-18.85 90.57-17.65 90.46-16.44 90.35-15.23 90.35-14.16L90.35-14.16Q90.35-13.09 90.46-11.87 90.57-10.64 90.84-9.45 91.11-8.25 91.58-7.15 92.06-6.05 92.79-5.21 93.53-4.37 94.55-3.87 95.58-3.37 96.97-3.37L96.97-3.37Q98.24-3.37 99.23-3.89 100.21-4.42 100.96-5.3 101.7-6.18 102.22-7.3 102.73-8.42 103.05-9.62 103.36-10.82 103.51-12 103.66-13.18 103.66-14.16ZM127.51-35.01L127.51-35.01Q127.51-34.08 127.15-33.25 126.8-32.42 126.19-31.81 125.58-31.2 124.75-30.85 123.92-30.49 122.99-30.49L122.99-30.49Q122.06-30.49 121.24-30.85 120.43-31.2 119.82-31.81 119.21-32.42 118.85-33.25 118.5-34.08 118.5-35.01L118.5-35.01Q118.5-35.94 118.85-36.76 119.21-37.57 119.82-38.18 120.43-38.79 121.24-39.15 122.06-39.5 122.99-39.5L122.99-39.5Q123.92-39.5 124.75-39.15 125.58-38.79 126.19-38.18 126.8-37.57 127.15-36.76 127.51-35.94 127.51-35.01ZM127.14-28.17L127.14 0 118.86 0 118.86-28.17 127.14-28.17ZM162.47-38.57L162.47 0 159.29 0 155.63-6.13Q155.09-4.59 154.15-3.34 153.21-2.1 151.98-1.21 150.75-0.32 149.27 0.17 147.79 0.66 146.16 0.66L146.16 0.66Q142.93 0.66 140.4-0.49 137.86-1.64 136.1-3.63 134.34-5.62 133.41-8.3 132.49-10.99 132.49-14.06L132.49-14.06Q132.49-17.14 133.41-19.82 134.34-22.51 136.1-24.49 137.86-26.46 140.4-27.61 142.93-28.76 146.16-28.76L146.16-28.76Q148.62-28.76 150.69-27.81 152.75-26.86 154.21-24.83L154.21-24.83 154.21-38.57 162.47-38.57ZM154.16-14.06L154.16-14.06Q154.16-15.04 154.02-16.21 153.87-17.38 153.55-18.58 153.24-19.78 152.72-20.9 152.21-22.02 151.47-22.9 150.72-23.78 149.73-24.3 148.74-24.83 147.48-24.83L147.48-24.83Q146.08-24.83 145.06-24.33 144.03-23.83 143.3-22.99 142.57-22.14 142.09-21.04 141.62-19.95 141.35-18.75 141.08-17.55 140.97-16.35 140.86-15.14 140.86-14.06L140.86-14.06Q140.86-12.99 140.97-11.78 141.08-10.57 141.35-9.38 141.62-8.18 142.09-7.07 142.57-5.96 143.3-5.11 144.03-4.27 145.06-3.77 146.08-3.27 147.48-3.27L147.48-3.27Q148.87-3.27 149.92-3.76 150.97-4.25 151.71-5.09 152.46-5.93 152.93-7.02 153.41-8.11 153.68-9.31 153.95-10.52 154.05-11.74 154.16-12.96 154.16-14.06ZM176.13-13.38L176.13-13.38Q177.65-13.04 179.16-12.84 180.68-12.65 182.21-12.65L182.21-12.65Q183.83-12.65 185.2-12.95 186.58-13.26 187.6-13.98 188.61-14.7 189.2-15.89 189.78-17.09 189.78-18.87L189.78-18.87Q189.78-20.31 189.39-21.51 189-22.71 188.23-23.56 187.46-24.41 186.34-24.89 185.22-25.37 183.73-25.37L183.73-25.37Q182.34-25.37 181.23-24.85 180.11-24.34 179.27-23.47 178.43-22.61 177.83-21.46 177.23-20.31 176.84-19.07 176.45-17.82 176.28-16.55 176.11-15.28 176.11-14.16L176.11-14.16Q176.11-13.96 176.11-13.77 176.11-13.57 176.13-13.38ZM196.47-18.95L196.47-18.95Q196.47-17.21 195.91-15.86 195.35-14.5 194.38-13.48 193.42-12.45 192.15-11.74 190.88-11.04 189.44-10.58 188-10.13 186.47-9.94 184.95-9.74 183.51-9.74L183.51-9.74Q181.68-9.74 179.89-10 178.11-10.25 176.38-10.82L176.38-10.82Q176.65-9.2 177.23-7.75 177.82-6.3 178.8-5.21 179.77-4.13 181.2-3.49 182.63-2.86 184.58-2.86L184.58-2.86Q185.88-2.86 187.05-3.25 188.22-3.64 189.2-4.35 190.17-5.05 190.92-6.03 191.66-7.01 192.13-8.2L192.13-8.2 195.69-6.88Q194.88-4.96 193.48-3.55 192.08-2.15 190.31-1.23 188.54-0.32 186.55 0.12 184.56 0.56 182.6 0.56L182.6 0.56Q179.38 0.56 176.65-0.52 173.91-1.61 171.94-3.56 169.96-5.52 168.84-8.23 167.71-10.94 167.71-14.16L167.71-14.16Q167.71-17.38 168.84-20.09 169.96-22.8 171.94-24.76 173.91-26.71 176.65-27.8 179.38-28.88 182.6-28.88L182.6-28.88Q184.17-28.88 185.8-28.66 187.44-28.44 188.98-27.97 190.51-27.49 191.88-26.73 193.25-25.98 194.26-24.87 195.28-23.75 195.87-22.29 196.47-20.83 196.47-18.95ZM227.23-28.2L216.12 0 208.7 0 198.45-28.2 206.7-28.2 214.22-5.74 221.52-28.2 227.23-28.2Z" opacity="1" transform="matrix(1,0,0,1,0,0)" fill="black" class="wordmark-text-0" id="SvgjsPath1042"></path></svg></g></svg></g><g transform="matrix(1,0,0,1,163.31020799999996,99.41050954786515)"><svg viewBox="0 0 232.20979200000002 48.20323027544911" height="48.20323027544911" width="232.20979200000002"><g transform="matrix(1,0,0,1,0,0)"><svg width="232.20979200000002" viewBox="1.39 -21.25 104.37 21.67" height="48.20323027544911" data-palette-color="url(#39035a6b-4b96-455d-a53c-12f2611658d6)"><path d="M16.46 0L1.39 0 11.25-17.5 2.01-17.5 2.01-20.83 17.01-20.83 7.15-3.33 16.46-3.33 16.46 0ZM31.25 0.42L31.25 0.42Q28.23 0.42 25.73-1.04 23.23-2.5 21.75-4.97 20.28-7.43 20.28-10.42L20.28-10.42Q20.28-13.44 21.75-15.89 23.23-18.33 25.73-19.79 28.23-21.25 31.25-21.25L31.25-21.25Q34.3-21.25 36.79-19.79 39.27-18.33 40.74-15.89 42.22-13.44 42.22-10.42L42.22-10.42Q42.22-7.43 40.74-4.97 39.27-2.5 36.79-1.04 34.3 0.42 31.25 0.42ZM31.25-3.13L31.25-3.13Q33.26-3.13 34.89-4.11 36.53-5.1 37.5-6.75 38.47-8.4 38.47-10.42L38.47-10.42Q38.47-12.43 37.5-14.08 36.53-15.73 34.89-16.72 33.26-17.71 31.25-17.71L31.25-17.71Q29.23-17.71 27.6-16.72 25.97-15.73 25-14.08 24.03-12.43 24.03-10.42L24.03-10.42Q24.03-8.4 25-6.75 25.97-5.1 27.6-4.11 29.23-3.13 31.25-3.13ZM56.94 0.42L56.94 0.42Q53.92 0.42 51.42-1.04 48.92-2.5 47.44-4.97 45.97-7.43 45.97-10.42L45.97-10.42Q45.97-13.44 47.44-15.89 48.92-18.33 51.42-19.79 53.92-21.25 56.94-21.25L56.94-21.25Q60-21.25 62.48-19.79 64.96-18.33 66.44-15.89 67.91-13.44 67.91-10.42L67.91-10.42Q67.91-7.43 66.44-4.97 64.96-2.5 62.48-1.04 60 0.42 56.94 0.42ZM56.94-3.13L56.94-3.13Q58.95-3.13 60.59-4.11 62.22-5.1 63.19-6.75 64.16-8.4 64.16-10.42L64.16-10.42Q64.16-12.43 63.19-14.08 62.22-15.73 60.59-16.72 58.95-17.71 56.94-17.71L56.94-17.71Q54.93-17.71 53.29-16.72 51.66-15.73 50.69-14.08 49.72-12.43 49.72-10.42L49.72-10.42Q49.72-8.4 50.69-6.75 51.66-5.1 53.29-4.11 54.93-3.13 56.94-3.13ZM76.87 0L73.12 0 73.12-20.83 76.59-20.83 76.59-17.85Q77.74-19.55 79.49-20.4 81.24-21.25 83.19-21.25L83.19-21.25Q85.31-21.25 87.08-20.26 88.85-19.27 89.92-17.5L89.92-17.5Q91.14-19.38 93.07-20.31 94.99-21.25 97.15-21.25L97.15-21.25Q99.51-21.25 101.47-20.14 103.43-19.03 104.59-17.03 105.76-15.03 105.76-12.33L105.76-12.33 105.76 0 102.01 0 102.01-11.88Q102.01-14.72 100.39-16.2 98.78-17.67 96.66-17.67L96.66-17.67Q95.34-17.67 94.11-17.08 92.87-16.49 92.09-15.24 91.31-13.99 91.31-11.98L91.31-11.98 91.31 0 87.56 0 87.56-11.88Q87.56-13.85 86.78-15.14 86-16.42 84.77-17.07 83.53-17.71 82.21-17.71L82.21-17.71Q80.93-17.71 79.7-17.12 78.46-16.53 77.67-15.28 76.87-14.03 76.87-11.98L76.87-11.98 76.87 0Z" opacity="1" transform="matrix(1,0,0,1,0,0)" fill="black" class="slogan-text-1" id="SvgjsPath1041"></path></svg></g></svg></g></svg></g></svg></g><g><svg viewBox="0 0 214.48851839999995 214.48851839999995" height="214.48851839999995" width="214.48851839999995"><g><svg></svg></g><g id="SvgjsG1040"><svg viewBox="0 0 214.48851839999995 214.48851839999995" height="214.48851839999995" width="214.48851839999995"><g><rect width="195.02567135999996" height="195.02567135999996" x="9.731423519999993" y="9.731423519999993" fill="black"></rect><rect width="195.02567135999996" height="195.02567135999996" x="19.46284703999999" y="-3.552713678800501e-15" fill="black" opacity="0.5"></rect></g><g transform="matrix(1,0,0,1,27.80406719999999,27.80406719999999)"><svg viewBox="0 0 158.88038399999996 158.88038399999996" height="158.88038399999996" width="158.88038399999996"><g><svg xmlns="http://www.w3.org/2000/svg" xmlns:xlink="http://www.w3.org/1999/xlink" version="1.1" x="0" y="0" viewBox="0 0 512 512" enable-background="new 0 0 512 512" xml:space="preserve" height="158.88038399999996" width="158.88038399999996" class="icon-dxe-0" data-fill-palette-color="quaternary" id="SvgjsSvg1039"><path d="M480 0H32C14.313 0 0 14.328 0 32V480C0 497.688 14.313 512 32 512H480C497.688 512 512 497.687 512 480V32C512 14.328 497.688 0 480 0M432 448H160V464C160 472.844 152.844 480 144 480S128 472.844 128 464V448H80C71.156 448 64 440.844 64 432S71.156 416 80 416H128V400C128 391.156 135.156 384 144 384S160 391.156 160 400V416H432C440.844 416 448 423.156 448 432S440.844 448 432 448M480 352H32V32H480zM356.219 176.125C371.5 184.859 371.5 199.141 356.219 207.875L187.781 304.125C172.5 312.844 160 305.594 160 288V96C160 78.406 172.5 71.141 187.781 79.875z" fill="black"></path></svg></g></svg></g></svg></g></svg></g></svg></g><defs><mask></mask></defs></svg><rect width="395.5199999999999" height="134.87314111946338" fill="black" stroke="none" visibility="hidden"></rect></g></mask></svg><rect width="395.5199999999999" height="134.87314111946338" fill="black" stroke="none" visibility="hidden"></rect></g></mask><linearGradient x1="0" x2="1" y1="0.5" y2="0.5" id="39035a6b-4b96-455d-a53c-12f2611658d6"><stop stop-color="#ffa62e" offset="0"></stop><stop stop-color="#f71b3d" offset="1"></stop></linearGradient><rect width="395.5199999999999" height="134.87314111946338" fill="url(#39035a6b-4b96-455d-a53c-12f2611658d6)" mask="url(#ad610461-c379-4b6a-9e96-a52af0a9c259)" data-fill-palette-color="secondary"></rect><mask id="b6da04ac-58d4-48f3-9dad-1bdbf16c6169"><g id="SvgjsG1076"><svg viewBox="0 0 395.5199999999999 134.87314111946338" height="134.87314111946338" width="395.5199999999999"><g><svg viewBox="0 0 628.9947582849437 214.48851839999995" height="134.87314111946338" width="395.5199999999999"><g transform="matrix(1,0,0,1,233.47475828494376,33.43738928834284)"><svg viewBox="0 0 395.52 147.61373982331426" height="147.61373982331426" width="395.52"><g id="SvgjsG1075"><svg viewBox="0 0 395.52 147.61373982331426" height="147.61373982331426" width="395.52" id="SvgjsSvg1074"><g><svg viewBox="0 0 395.52 80.42426966292133" height="80.42426966292133" width="395.52"><g transform="matrix(1,0,0,1,0,0)"><svg width="395.52" viewBox="3.44 -39.5 223.79 45.51" height="80.42426966292133" data-palette-color="url(#cc08884c-95af-4db1-9edd-4c1b63cd5ea3)"></svg></g></svg></g><g transform="matrix(1,0,0,1,163.31020799999996,99.41050954786515)"><svg viewBox="0 0 232.20979200000002 48.20323027544911" height="48.20323027544911" width="232.20979200000002"><g transform="matrix(1,0,0,1,0,0)"><svg width="232.20979200000002" viewBox="1.39 -21.25 104.37 21.67" height="48.20323027544911" data-palette-color="url(#39035a6b-4b96-455d-a53c-12f2611658d6)"></svg></g></svg></g></svg></g></svg></g><g><svg viewBox="0 0 214.48851839999995 214.48851839999995" height="214.48851839999995" width="214.48851839999995"><g><svg></svg></g><g id="SvgjsG1073"><svg viewBox="0 0 214.48851839999995 214.48851839999995" height="214.48851839999995" width="214.48851839999995"><g><rect width="195.02567135999996" height="195.02567135999996" x="9.731423519999993" y="9.731423519999993" fill="white"></rect><rect width="195.02567135999996" height="195.02567135999996" x="19.46284703999999" y="-3.552713678800501e-15" fill="white" opacity="0.5"></rect></g><g transform="matrix(1,0,0,1,27.80406719999999,27.80406719999999)"><svg viewBox="0 0 158.88038399999996 158.88038399999996" height="158.88038399999996" width="158.88038399999996"><g><svg xmlns="http://www.w3.org/2000/svg" xmlns:xlink="http://www.w3.org/1999/xlink" version="1.1" x="0" y="0" viewBox="0 0 512 512" enable-background="new 0 0 512 512" xml:space="preserve" height="158.88038399999996" width="158.88038399999996" class="icon-dxe-0" data-fill-palette-color="quaternary" id="SvgjsSvg1072"><path d="M480 0H32C14.313 0 0 14.328 0 32V480C0 497.688 14.313 512 32 512H480C497.688 512 512 497.687 512 480V32C512 14.328 497.688 0 480 0M432 448H160V464C160 472.844 152.844 480 144 480S128 472.844 128 464V448H80C71.156 448 64 440.844 64 432S71.156 416 80 416H128V400C128 391.156 135.156 384 144 384S160 391.156 160 400V416H432C440.844 416 448 423.156 448 432S440.844 448 432 448M480 352H32V32H480zM356.219 176.125C371.5 184.859 371.5 199.141 356.219 207.875L187.781 304.125C172.5 312.844 160 305.594 160 288V96C160 78.406 172.5 71.141 187.781 79.875z" fill="black"></path></svg></g></svg></g></svg></g></svg></g></svg></g><defs><mask></mask></defs><mask><g id="SvgjsG1071"><svg viewBox="0 0 395.5199999999999 134.87314111946338" height="134.87314111946338" width="395.5199999999999"><g><svg viewBox="0 0 628.9947582849437 214.48851839999995" height="134.87314111946338" width="395.5199999999999"><g transform="matrix(1,0,0,1,233.47475828494376,33.43738928834284)"><svg viewBox="0 0 395.52 147.61373982331426" height="147.61373982331426" width="395.52"><g id="SvgjsG1070"><svg viewBox="0 0 395.52 147.61373982331426" height="147.61373982331426" width="395.52" id="SvgjsSvg1069"><g><svg viewBox="0 0 395.52 80.42426966292133" height="80.42426966292133" width="395.52"><g transform="matrix(1,0,0,1,0,0)"><svg width="395.52" viewBox="3.44 -39.5 223.79 45.51" height="80.42426966292133" data-palette-color="url(#cc08884c-95af-4db1-9edd-4c1b63cd5ea3)"><path d="M47.07-16.46L47.07-16.46Q47.07-13.55 46.39-10.4 45.7-7.25 44.47-4.26 43.24-1.27 41.5 1.39 39.77 4.05 37.65 6.01L37.65 6.01 34.55 4.32Q35.25 3.05 35.84 1.46 36.43-0.12 36.91-1.88 37.4-3.64 37.77-5.49 38.13-7.35 38.39-9.19 38.65-11.04 38.77-12.77 38.89-14.5 38.89-16.02L38.89-16.02Q38.89-16.87 38.84-17.87 38.79-18.87 38.64-19.87 38.48-20.87 38.16-21.79 37.84-22.71 37.29-23.43 36.74-24.15 35.93-24.57 35.11-25 33.96-25L33.96-25Q32.84-25 32.04-24.4 31.25-23.8 30.69-22.85 30.13-21.9 29.8-20.7 29.47-19.51 29.3-18.3 29.13-17.09 29.06-15.99 29-14.89 29-14.14L29-14.14 29 0 20.78 0 20.78-13.13Q20.78-13.99 20.8-15.2 20.83-16.41 20.74-17.72 20.65-19.04 20.42-20.35 20.19-21.66 19.69-22.68 19.19-23.71 18.33-24.35 17.48-25 16.19-25L16.19-25Q15.09-25 14.34-24.39 13.6-23.78 13.1-22.81 12.6-21.85 12.32-20.64 12.04-19.43 11.9-18.23 11.77-17.02 11.74-15.93 11.72-14.84 11.72-14.14L11.72-14.14 11.72 0 3.44 0 3.44-28.2 6.62-28.2 9.64-21.63Q10.67-25.05 12.88-26.97 15.09-28.88 18.75-28.88L18.75-28.88Q22.05-28.88 24.22-27.51 26.39-26.15 27.64-23.07L27.64-23.07Q28.34-24.41 29.21-25.49 30.08-26.56 31.14-27.32 32.2-28.08 33.5-28.48 34.79-28.88 36.35-28.88L36.35-28.88Q39.23-28.88 41.27-27.94 43.31-27 44.6-25.34 45.9-23.68 46.48-21.4 47.07-19.12 47.07-16.46ZM60.81-9.47L60.81 0 52.56 0 52.56-38.57 60.81-38.57 60.81-13.26Q62.84-14.72 64.8-16.48 66.77-18.24 68.55-20.18 70.33-22.12 71.86-24.15 73.39-26.17 74.53-28.2L74.53-28.2 80.15-28.2Q78.44-25.32 76.1-22.45 73.75-19.58 70.99-16.97L70.99-16.97 80.25 0 71.14 0 64.57-11.77Q62.74-10.52 60.81-9.47L60.81-9.47ZM111.96-28.2L111.96 0 103.71 0 103.71-3.37Q102.24-1.37 100.18-0.4 98.12 0.56 95.65 0.56L95.65 0.56Q92.43 0.56 89.89-0.59 87.35-1.73 85.59-3.72 83.83-5.71 82.91-8.4 81.98-11.08 81.98-14.16L81.98-14.16Q81.98-17.24 82.91-19.92 83.83-22.61 85.59-24.6 87.35-26.59 89.89-27.73 92.43-28.88 95.65-28.88L95.65-28.88Q97.29-28.88 98.76-28.39 100.24-27.91 101.47-27.01 102.7-26.12 103.64-24.87 104.58-23.61 105.12-22.07L105.12-22.07 108.78-28.2 111.96-28.2ZM103.66-14.16L103.66-14.16Q103.66-15.26 103.55-16.48 103.44-17.7 103.17-18.9 102.9-20.09 102.42-21.18 101.95-22.27 101.2-23.11 100.46-23.95 99.41-24.44 98.36-24.93 96.97-24.93L96.97-24.93Q95.58-24.93 94.55-24.43 93.53-23.93 92.79-23.08 92.06-22.24 91.58-21.14 91.11-20.04 90.84-18.85 90.57-17.65 90.46-16.44 90.35-15.23 90.35-14.16L90.35-14.16Q90.35-13.09 90.46-11.87 90.57-10.64 90.84-9.45 91.11-8.25 91.58-7.15 92.06-6.05 92.79-5.21 93.53-4.37 94.55-3.87 95.58-3.37 96.97-3.37L96.97-3.37Q98.24-3.37 99.23-3.89 100.21-4.42 100.96-5.3 101.7-6.18 102.22-7.3 102.73-8.42 103.05-9.62 103.36-10.82 103.51-12 103.66-13.18 103.66-14.16ZM127.51-35.01L127.51-35.01Q127.51-34.08 127.15-33.25 126.8-32.42 126.19-31.81 125.58-31.2 124.75-30.85 123.92-30.49 122.99-30.49L122.99-30.49Q122.06-30.49 121.24-30.85 120.43-31.2 119.82-31.81 119.21-32.42 118.85-33.25 118.5-34.08 118.5-35.01L118.5-35.01Q118.5-35.94 118.85-36.76 119.21-37.57 119.82-38.18 120.43-38.79 121.24-39.15 122.06-39.5 122.99-39.5L122.99-39.5Q123.92-39.5 124.75-39.15 125.58-38.79 126.19-38.18 126.8-37.57 127.15-36.76 127.51-35.94 127.51-35.01ZM127.14-28.17L127.14 0 118.86 0 118.86-28.17 127.14-28.17ZM162.47-38.57L162.47 0 159.29 0 155.63-6.13Q155.09-4.59 154.15-3.34 153.21-2.1 151.98-1.21 150.75-0.32 149.27 0.17 147.79 0.66 146.16 0.66L146.16 0.66Q142.93 0.66 140.4-0.49 137.86-1.64 136.1-3.63 134.34-5.62 133.41-8.3 132.49-10.99 132.49-14.06L132.49-14.06Q132.49-17.14 133.41-19.82 134.34-22.51 136.1-24.49 137.86-26.46 140.4-27.61 142.93-28.76 146.16-28.76L146.16-28.76Q148.62-28.76 150.69-27.81 152.75-26.86 154.21-24.83L154.21-24.83 154.21-38.57 162.47-38.57ZM154.16-14.06L154.16-14.06Q154.16-15.04 154.02-16.21 153.87-17.38 153.55-18.58 153.24-19.78 152.72-20.9 152.21-22.02 151.47-22.9 150.72-23.78 149.73-24.3 148.74-24.83 147.48-24.83L147.48-24.83Q146.08-24.83 145.06-24.33 144.03-23.83 143.3-22.99 142.57-22.14 142.09-21.04 141.62-19.95 141.35-18.75 141.08-17.55 140.97-16.35 140.86-15.14 140.86-14.06L140.86-14.06Q140.86-12.99 140.97-11.78 141.08-10.57 141.35-9.38 141.62-8.18 142.09-7.07 142.57-5.96 143.3-5.11 144.03-4.27 145.06-3.77 146.08-3.27 147.48-3.27L147.48-3.27Q148.87-3.27 149.92-3.76 150.97-4.25 151.71-5.09 152.46-5.93 152.93-7.02 153.41-8.11 153.68-9.31 153.95-10.52 154.05-11.74 154.16-12.96 154.16-14.06ZM176.13-13.38L176.13-13.38Q177.65-13.04 179.16-12.84 180.68-12.65 182.21-12.65L182.21-12.65Q183.83-12.65 185.2-12.95 186.58-13.26 187.6-13.98 188.61-14.7 189.2-15.89 189.78-17.09 189.78-18.87L189.78-18.87Q189.78-20.31 189.39-21.51 189-22.71 188.23-23.56 187.46-24.41 186.34-24.89 185.22-25.37 183.73-25.37L183.73-25.37Q182.34-25.37 181.23-24.85 180.11-24.34 179.27-23.47 178.43-22.61 177.83-21.46 177.23-20.31 176.84-19.07 176.45-17.82 176.28-16.55 176.11-15.28 176.11-14.16L176.11-14.16Q176.11-13.96 176.11-13.77 176.11-13.57 176.13-13.38ZM196.47-18.95L196.47-18.95Q196.47-17.21 195.91-15.86 195.35-14.5 194.38-13.48 193.42-12.45 192.15-11.74 190.88-11.04 189.44-10.58 188-10.13 186.47-9.94 184.95-9.74 183.51-9.74L183.51-9.74Q181.68-9.74 179.89-10 178.11-10.25 176.38-10.82L176.38-10.82Q176.65-9.2 177.23-7.75 177.82-6.3 178.8-5.21 179.77-4.13 181.2-3.49 182.63-2.86 184.58-2.86L184.58-2.86Q185.88-2.86 187.05-3.25 188.22-3.64 189.2-4.35 190.17-5.05 190.92-6.03 191.66-7.01 192.13-8.2L192.13-8.2 195.69-6.88Q194.88-4.96 193.48-3.55 192.08-2.15 190.31-1.23 188.54-0.32 186.55 0.12 184.56 0.56 182.6 0.56L182.6 0.56Q179.38 0.56 176.65-0.52 173.91-1.61 171.94-3.56 169.96-5.52 168.84-8.23 167.71-10.94 167.71-14.16L167.71-14.16Q167.71-17.38 168.84-20.09 169.96-22.8 171.94-24.76 173.91-26.71 176.65-27.8 179.38-28.88 182.6-28.88L182.6-28.88Q184.17-28.88 185.8-28.66 187.44-28.44 188.98-27.97 190.51-27.49 191.88-26.73 193.25-25.98 194.26-24.87 195.28-23.75 195.87-22.29 196.47-20.83 196.47-18.95ZM227.23-28.2L216.12 0 208.7 0 198.45-28.2 206.7-28.2 214.22-5.74 221.52-28.2 227.23-28.2Z" opacity="1" transform="matrix(1,0,0,1,0,0)" fill="black" class="wordmark-text-0" id="SvgjsPath1068"></path></svg></g></svg></g><g transform="matrix(1,0,0,1,163.31020799999996,99.41050954786515)"><svg viewBox="0 0 232.20979200000002 48.20323027544911" height="48.20323027544911" width="232.20979200000002"><g transform="matrix(1,0,0,1,0,0)"><svg width="232.20979200000002" viewBox="1.39 -21.25 104.37 21.67" height="48.20323027544911" data-palette-color="url(#39035a6b-4b96-455d-a53c-12f2611658d6)"><path d="M16.46 0L1.39 0 11.25-17.5 2.01-17.5 2.01-20.83 17.01-20.83 7.15-3.33 16.46-3.33 16.46 0ZM31.25 0.42L31.25 0.42Q28.23 0.42 25.73-1.04 23.23-2.5 21.75-4.97 20.28-7.43 20.28-10.42L20.28-10.42Q20.28-13.44 21.75-15.89 23.23-18.33 25.73-19.79 28.23-21.25 31.25-21.25L31.25-21.25Q34.3-21.25 36.79-19.79 39.27-18.33 40.74-15.89 42.22-13.44 42.22-10.42L42.22-10.42Q42.22-7.43 40.74-4.97 39.27-2.5 36.79-1.04 34.3 0.42 31.25 0.42ZM31.25-3.13L31.25-3.13Q33.26-3.13 34.89-4.11 36.53-5.1 37.5-6.75 38.47-8.4 38.47-10.42L38.47-10.42Q38.47-12.43 37.5-14.08 36.53-15.73 34.89-16.72 33.26-17.71 31.25-17.71L31.25-17.71Q29.23-17.71 27.6-16.72 25.97-15.73 25-14.08 24.03-12.43 24.03-10.42L24.03-10.42Q24.03-8.4 25-6.75 25.97-5.1 27.6-4.11 29.23-3.13 31.25-3.13ZM56.94 0.42L56.94 0.42Q53.92 0.42 51.42-1.04 48.92-2.5 47.44-4.97 45.97-7.43 45.97-10.42L45.97-10.42Q45.97-13.44 47.44-15.89 48.92-18.33 51.42-19.79 53.92-21.25 56.94-21.25L56.94-21.25Q60-21.25 62.48-19.79 64.96-18.33 66.44-15.89 67.91-13.44 67.91-10.42L67.91-10.42Q67.91-7.43 66.44-4.97 64.96-2.5 62.48-1.04 60 0.42 56.94 0.42ZM56.94-3.13L56.94-3.13Q58.95-3.13 60.59-4.11 62.22-5.1 63.19-6.75 64.16-8.4 64.16-10.42L64.16-10.42Q64.16-12.43 63.19-14.08 62.22-15.73 60.59-16.72 58.95-17.71 56.94-17.71L56.94-17.71Q54.93-17.71 53.29-16.72 51.66-15.73 50.69-14.08 49.72-12.43 49.72-10.42L49.72-10.42Q49.72-8.4 50.69-6.75 51.66-5.1 53.29-4.11 54.93-3.13 56.94-3.13ZM76.87 0L73.12 0 73.12-20.83 76.59-20.83 76.59-17.85Q77.74-19.55 79.49-20.4 81.24-21.25 83.19-21.25L83.19-21.25Q85.31-21.25 87.08-20.26 88.85-19.27 89.92-17.5L89.92-17.5Q91.14-19.38 93.07-20.31 94.99-21.25 97.15-21.25L97.15-21.25Q99.51-21.25 101.47-20.14 103.43-19.03 104.59-17.03 105.76-15.03 105.76-12.33L105.76-12.33 105.76 0 102.01 0 102.01-11.88Q102.01-14.72 100.39-16.2 98.78-17.67 96.66-17.67L96.66-17.67Q95.34-17.67 94.11-17.08 92.87-16.49 92.09-15.24 91.31-13.99 91.31-11.98L91.31-11.98 91.31 0 87.56 0 87.56-11.88Q87.56-13.85 86.78-15.14 86-16.42 84.77-17.07 83.53-17.71 82.21-17.71L82.21-17.71Q80.93-17.71 79.7-17.12 78.46-16.53 77.67-15.28 76.87-14.03 76.87-11.98L76.87-11.98 76.87 0Z" opacity="1" transform="matrix(1,0,0,1,0,0)" fill="black" class="slogan-text-1" id="SvgjsPath1067"></path></svg></g></svg></g></svg></g></svg></g><g><svg viewBox="0 0 214.48851839999995 214.48851839999995" height="214.48851839999995" width="214.48851839999995"><g><svg></svg></g><g id="SvgjsG1066"><svg viewBox="0 0 214.48851839999995 214.48851839999995" height="214.48851839999995" width="214.48851839999995"><g><rect width="195.02567135999996" height="195.02567135999996" x="9.731423519999993" y="9.731423519999993" fill="black"></rect><rect width="195.02567135999996" height="195.02567135999996" x="19.46284703999999" y="-3.552713678800501e-15" fill="black" opacity="0.5"></rect></g><g transform="matrix(1,0,0,1,27.80406719999999,27.80406719999999)"><svg viewBox="0 0 158.88038399999996 158.88038399999996" height="158.88038399999996" width="158.88038399999996"><g><svg xmlns="http://www.w3.org/2000/svg" xmlns:xlink="http://www.w3.org/1999/xlink" version="1.1" x="0" y="0" viewBox="0 0 512 512" enable-background="new 0 0 512 512" xml:space="preserve" height="158.88038399999996" width="158.88038399999996" class="icon-dxe-0" data-fill-palette-color="quaternary" id="SvgjsSvg1065"><path d="M480 0H32C14.313 0 0 14.328 0 32V480C0 497.688 14.313 512 32 512H480C497.688 512 512 497.687 512 480V32C512 14.328 497.688 0 480 0M432 448H160V464C160 472.844 152.844 480 144 480S128 472.844 128 464V448H80C71.156 448 64 440.844 64 432S71.156 416 80 416H128V400C128 391.156 135.156 384 144 384S160 391.156 160 400V416H432C440.844 416 448 423.156 448 432S440.844 448 432 448M480 352H32V32H480zM356.219 176.125C371.5 184.859 371.5 199.141 356.219 207.875L187.781 304.125C172.5 312.844 160 305.594 160 288V96C160 78.406 172.5 71.141 187.781 79.875z" fill="black"></path></svg></g></svg></g></svg></g></svg></g></svg></g><defs><mask></mask></defs></svg><rect width="395.5199999999999" height="134.87314111946338" fill="black" stroke="none" visibility="hidden"></rect></g></mask><mask><g id="SvgjsG1064"><svg viewBox="0 0 395.5199999999999 134.87314111946338" height="134.87314111946338" width="395.5199999999999"><g><svg viewBox="0 0 628.9947582849437 214.48851839999995" height="134.87314111946338" width="395.5199999999999"><g transform="matrix(1,0,0,1,233.47475828494376,33.43738928834284)"><svg viewBox="0 0 395.52 147.61373982331426" height="147.61373982331426" width="395.52"><g id="SvgjsG1063"><svg viewBox="0 0 395.52 147.61373982331426" height="147.61373982331426" width="395.52" id="SvgjsSvg1062"><g><svg viewBox="0 0 395.52 80.42426966292133" height="80.42426966292133" width="395.52"><g transform="matrix(1,0,0,1,0,0)"><svg width="395.52" viewBox="3.44 -39.5 223.79 45.51" height="80.42426966292133" data-palette-color="url(#cc08884c-95af-4db1-9edd-4c1b63cd5ea3)"></svg></g></svg></g><g transform="matrix(1,0,0,1,163.31020799999996,99.41050954786515)"><svg viewBox="0 0 232.20979200000002 48.20323027544911" height="48.20323027544911" width="232.20979200000002"><g transform="matrix(1,0,0,1,0,0)"><svg width="232.20979200000002" viewBox="1.39 -21.25 104.37 21.67" height="48.20323027544911" data-palette-color="url(#39035a6b-4b96-455d-a53c-12f2611658d6)"><path d="M16.46 0L1.39 0 11.25-17.5 2.01-17.5 2.01-20.83 17.01-20.83 7.15-3.33 16.46-3.33 16.46 0ZM31.25 0.42L31.25 0.42Q28.23 0.42 25.73-1.04 23.23-2.5 21.75-4.97 20.28-7.43 20.28-10.42L20.28-10.42Q20.28-13.44 21.75-15.89 23.23-18.33 25.73-19.79 28.23-21.25 31.25-21.25L31.25-21.25Q34.3-21.25 36.79-19.79 39.27-18.33 40.74-15.89 42.22-13.44 42.22-10.42L42.22-10.42Q42.22-7.43 40.74-4.97 39.27-2.5 36.79-1.04 34.3 0.42 31.25 0.42ZM31.25-3.13L31.25-3.13Q33.26-3.13 34.89-4.11 36.53-5.1 37.5-6.75 38.47-8.4 38.47-10.42L38.47-10.42Q38.47-12.43 37.5-14.08 36.53-15.73 34.89-16.72 33.26-17.71 31.25-17.71L31.25-17.71Q29.23-17.71 27.6-16.72 25.97-15.73 25-14.08 24.03-12.43 24.03-10.42L24.03-10.42Q24.03-8.4 25-6.75 25.97-5.1 27.6-4.11 29.23-3.13 31.25-3.13ZM56.94 0.42L56.94 0.42Q53.92 0.42 51.42-1.04 48.92-2.5 47.44-4.97 45.97-7.43 45.97-10.42L45.97-10.42Q45.97-13.44 47.44-15.89 48.92-18.33 51.42-19.79 53.92-21.25 56.94-21.25L56.94-21.25Q60-21.25 62.48-19.79 64.96-18.33 66.44-15.89 67.91-13.44 67.91-10.42L67.91-10.42Q67.91-7.43 66.44-4.97 64.96-2.5 62.48-1.04 60 0.42 56.94 0.42ZM56.94-3.13L56.94-3.13Q58.95-3.13 60.59-4.11 62.22-5.1 63.19-6.75 64.16-8.4 64.16-10.42L64.16-10.42Q64.16-12.43 63.19-14.08 62.22-15.73 60.59-16.72 58.95-17.71 56.94-17.71L56.94-17.71Q54.93-17.71 53.29-16.72 51.66-15.73 50.69-14.08 49.72-12.43 49.72-10.42L49.72-10.42Q49.72-8.4 50.69-6.75 51.66-5.1 53.29-4.11 54.93-3.13 56.94-3.13ZM76.87 0L73.12 0 73.12-20.83 76.59-20.83 76.59-17.85Q77.74-19.55 79.49-20.4 81.24-21.25 83.19-21.25L83.19-21.25Q85.31-21.25 87.08-20.26 88.85-19.27 89.92-17.5L89.92-17.5Q91.14-19.38 93.07-20.31 94.99-21.25 97.15-21.25L97.15-21.25Q99.51-21.25 101.47-20.14 103.43-19.03 104.59-17.03 105.76-15.03 105.76-12.33L105.76-12.33 105.76 0 102.01 0 102.01-11.88Q102.01-14.72 100.39-16.2 98.78-17.67 96.66-17.67L96.66-17.67Q95.34-17.67 94.11-17.08 92.87-16.49 92.09-15.24 91.31-13.99 91.31-11.98L91.31-11.98 91.31 0 87.56 0 87.56-11.88Q87.56-13.85 86.78-15.14 86-16.42 84.77-17.07 83.53-17.71 82.21-17.71L82.21-17.71Q80.93-17.71 79.7-17.12 78.46-16.53 77.67-15.28 76.87-14.03 76.87-11.98L76.87-11.98 76.87 0Z" opacity="1" transform="matrix(1,0,0,1,0,0)" fill="black" class="slogan-text-1" id="SvgjsPath1061"></path></svg></g></svg></g></svg></g></svg></g><g><svg viewBox="0 0 214.48851839999995 214.48851839999995" height="214.48851839999995" width="214.48851839999995"><g><svg></svg></g><g id="SvgjsG1060"><svg viewBox="0 0 214.48851839999995 214.48851839999995" height="214.48851839999995" width="214.48851839999995"><g><rect width="195.02567135999996" height="195.02567135999996" x="9.731423519999993" y="9.731423519999993" fill="black"></rect><rect width="195.02567135999996" height="195.02567135999996" x="19.46284703999999" y="-3.552713678800501e-15" fill="black" opacity="0.5"></rect></g><g transform="matrix(1,0,0,1,27.80406719999999,27.80406719999999)"><svg viewBox="0 0 158.88038399999996 158.88038399999996" height="158.88038399999996" width="158.88038399999996"><g><svg xmlns="http://www.w3.org/2000/svg" xmlns:xlink="http://www.w3.org/1999/xlink" version="1.1" x="0" y="0" viewBox="0 0 512 512" enable-background="new 0 0 512 512" xml:space="preserve" height="158.88038399999996" width="158.88038399999996" class="icon-dxe-0" data-fill-palette-color="quaternary" id="SvgjsSvg1059"><path d="M480 0H32C14.313 0 0 14.328 0 32V480C0 497.688 14.313 512 32 512H480C497.688 512 512 497.687 512 480V32C512 14.328 497.688 0 480 0M432 448H160V464C160 472.844 152.844 480 144 480S128 472.844 128 464V448H80C71.156 448 64 440.844 64 432S71.156 416 80 416H128V400C128 391.156 135.156 384 144 384S160 391.156 160 400V416H432C440.844 416 448 423.156 448 432S440.844 448 432 448M480 352H32V32H480zM356.219 176.125C371.5 184.859 371.5 199.141 356.219 207.875L187.781 304.125C172.5 312.844 160 305.594 160 288V96C160 78.406 172.5 71.141 187.781 79.875z" fill="black"></path></svg></g></svg></g></svg></g></svg></g></svg></g><defs><mask></mask></defs><mask><g id="SvgjsG1058"><svg viewBox="0 0 395.5199999999999 134.87314111946338" height="134.87314111946338" width="395.5199999999999"><g><svg viewBox="0 0 628.9947582849437 214.48851839999995" height="134.87314111946338" width="395.5199999999999"><g transform="matrix(1,0,0,1,233.47475828494376,33.43738928834284)"><svg viewBox="0 0 395.52 147.61373982331426" height="147.61373982331426" width="395.52"><g id="SvgjsG1057"><svg viewBox="0 0 395.52 147.61373982331426" height="147.61373982331426" width="395.52" id="SvgjsSvg1056"><g><svg viewBox="0 0 395.52 80.42426966292133" height="80.42426966292133" width="395.52"><g transform="matrix(1,0,0,1,0,0)"><svg width="395.52" viewBox="3.44 -39.5 223.79 45.51" height="80.42426966292133" data-palette-color="url(#cc08884c-95af-4db1-9edd-4c1b63cd5ea3)"><path d="M47.07-16.46L47.07-16.46Q47.07-13.55 46.39-10.4 45.7-7.25 44.47-4.26 43.24-1.27 41.5 1.39 39.77 4.05 37.65 6.01L37.65 6.01 34.55 4.32Q35.25 3.05 35.84 1.46 36.43-0.12 36.91-1.88 37.4-3.64 37.77-5.49 38.13-7.35 38.39-9.19 38.65-11.04 38.77-12.77 38.89-14.5 38.89-16.02L38.89-16.02Q38.89-16.87 38.84-17.87 38.79-18.87 38.64-19.87 38.48-20.87 38.16-21.79 37.84-22.71 37.29-23.43 36.74-24.15 35.93-24.57 35.11-25 33.96-25L33.96-25Q32.84-25 32.04-24.4 31.25-23.8 30.69-22.85 30.13-21.9 29.8-20.7 29.47-19.51 29.3-18.3 29.13-17.09 29.06-15.99 29-14.89 29-14.14L29-14.14 29 0 20.78 0 20.78-13.13Q20.78-13.99 20.8-15.2 20.83-16.41 20.74-17.72 20.65-19.04 20.42-20.35 20.19-21.66 19.69-22.68 19.19-23.71 18.33-24.35 17.48-25 16.19-25L16.19-25Q15.09-25 14.34-24.39 13.6-23.78 13.1-22.81 12.6-21.85 12.32-20.64 12.04-19.43 11.9-18.23 11.77-17.02 11.74-15.93 11.72-14.84 11.72-14.14L11.72-14.14 11.72 0 3.44 0 3.44-28.2 6.62-28.2 9.64-21.63Q10.67-25.05 12.88-26.97 15.09-28.88 18.75-28.88L18.75-28.88Q22.05-28.88 24.22-27.51 26.39-26.15 27.64-23.07L27.64-23.07Q28.34-24.41 29.21-25.49 30.08-26.56 31.14-27.32 32.2-28.08 33.5-28.48 34.79-28.88 36.35-28.88L36.35-28.88Q39.23-28.88 41.27-27.94 43.31-27 44.6-25.34 45.9-23.68 46.48-21.4 47.07-19.12 47.07-16.46ZM60.81-9.47L60.81 0 52.56 0 52.56-38.57 60.81-38.57 60.81-13.26Q62.84-14.72 64.8-16.48 66.77-18.24 68.55-20.18 70.33-22.12 71.86-24.15 73.39-26.17 74.53-28.2L74.53-28.2 80.15-28.2Q78.44-25.32 76.1-22.45 73.75-19.58 70.99-16.97L70.99-16.97 80.25 0 71.14 0 64.57-11.77Q62.74-10.52 60.81-9.47L60.81-9.47ZM111.96-28.2L111.96 0 103.71 0 103.71-3.37Q102.24-1.37 100.18-0.4 98.12 0.56 95.65 0.56L95.65 0.56Q92.43 0.56 89.89-0.59 87.35-1.73 85.59-3.72 83.83-5.71 82.91-8.4 81.98-11.08 81.98-14.16L81.98-14.16Q81.98-17.24 82.91-19.92 83.83-22.61 85.59-24.6 87.35-26.59 89.89-27.73 92.43-28.88 95.65-28.88L95.65-28.88Q97.29-28.88 98.76-28.39 100.24-27.91 101.47-27.01 102.7-26.12 103.64-24.87 104.58-23.61 105.12-22.07L105.12-22.07 108.78-28.2 111.96-28.2ZM103.66-14.16L103.66-14.16Q103.66-15.26 103.55-16.48 103.44-17.7 103.17-18.9 102.9-20.09 102.42-21.18 101.95-22.27 101.2-23.11 100.46-23.95 99.41-24.44 98.36-24.93 96.97-24.93L96.97-24.93Q95.58-24.93 94.55-24.43 93.53-23.93 92.79-23.08 92.06-22.24 91.58-21.14 91.11-20.04 90.84-18.85 90.57-17.65 90.46-16.44 90.35-15.23 90.35-14.16L90.35-14.16Q90.35-13.09 90.46-11.87 90.57-10.64 90.84-9.45 91.11-8.25 91.58-7.15 92.06-6.05 92.79-5.21 93.53-4.37 94.55-3.87 95.58-3.37 96.97-3.37L96.97-3.37Q98.24-3.37 99.23-3.89 100.21-4.42 100.96-5.3 101.7-6.18 102.22-7.3 102.73-8.42 103.05-9.62 103.36-10.82 103.51-12 103.66-13.18 103.66-14.16ZM127.51-35.01L127.51-35.01Q127.51-34.08 127.15-33.25 126.8-32.42 126.19-31.81 125.58-31.2 124.75-30.85 123.92-30.49 122.99-30.49L122.99-30.49Q122.06-30.49 121.24-30.85 120.43-31.2 119.82-31.81 119.21-32.42 118.85-33.25 118.5-34.08 118.5-35.01L118.5-35.01Q118.5-35.94 118.85-36.76 119.21-37.57 119.82-38.18 120.43-38.79 121.24-39.15 122.06-39.5 122.99-39.5L122.99-39.5Q123.92-39.5 124.75-39.15 125.58-38.79 126.19-38.18 126.8-37.57 127.15-36.76 127.51-35.94 127.51-35.01ZM127.14-28.17L127.14 0 118.86 0 118.86-28.17 127.14-28.17ZM162.47-38.57L162.47 0 159.29 0 155.63-6.13Q155.09-4.59 154.15-3.34 153.21-2.1 151.98-1.21 150.75-0.32 149.27 0.17 147.79 0.66 146.16 0.66L146.16 0.66Q142.93 0.66 140.4-0.49 137.86-1.64 136.1-3.63 134.34-5.62 133.41-8.3 132.49-10.99 132.49-14.06L132.49-14.06Q132.49-17.14 133.41-19.82 134.34-22.51 136.1-24.49 137.86-26.46 140.4-27.61 142.93-28.76 146.16-28.76L146.16-28.76Q148.62-28.76 150.69-27.81 152.75-26.86 154.21-24.83L154.21-24.83 154.21-38.57 162.47-38.57ZM154.16-14.06L154.16-14.06Q154.16-15.04 154.02-16.21 153.87-17.38 153.55-18.58 153.24-19.78 152.72-20.9 152.21-22.02 151.47-22.9 150.72-23.78 149.73-24.3 148.74-24.83 147.48-24.83L147.48-24.83Q146.08-24.83 145.06-24.33 144.03-23.83 143.3-22.99 142.57-22.14 142.09-21.04 141.62-19.95 141.35-18.75 141.08-17.55 140.97-16.35 140.86-15.14 140.86-14.06L140.86-14.06Q140.86-12.99 140.97-11.78 141.08-10.57 141.35-9.38 141.62-8.18 142.09-7.07 142.57-5.96 143.3-5.11 144.03-4.27 145.06-3.77 146.08-3.27 147.48-3.27L147.48-3.27Q148.87-3.27 149.92-3.76 150.97-4.25 151.71-5.09 152.46-5.93 152.93-7.02 153.41-8.11 153.68-9.31 153.95-10.52 154.05-11.74 154.16-12.96 154.16-14.06ZM176.13-13.38L176.13-13.38Q177.65-13.04 179.16-12.84 180.68-12.65 182.21-12.65L182.21-12.65Q183.83-12.65 185.2-12.95 186.58-13.26 187.6-13.98 188.61-14.7 189.2-15.89 189.78-17.09 189.78-18.87L189.78-18.87Q189.78-20.31 189.39-21.51 189-22.71 188.23-23.56 187.46-24.41 186.34-24.89 185.22-25.37 183.73-25.37L183.73-25.37Q182.34-25.37 181.23-24.85 180.11-24.34 179.27-23.47 178.43-22.61 177.83-21.46 177.23-20.31 176.84-19.07 176.45-17.82 176.28-16.55 176.11-15.28 176.11-14.16L176.11-14.16Q176.11-13.96 176.11-13.77 176.11-13.57 176.13-13.38ZM196.47-18.95L196.47-18.95Q196.47-17.21 195.91-15.86 195.35-14.5 194.38-13.48 193.42-12.45 192.15-11.74 190.88-11.04 189.44-10.58 188-10.13 186.47-9.94 184.95-9.74 183.51-9.74L183.51-9.74Q181.68-9.74 179.89-10 178.11-10.25 176.38-10.82L176.38-10.82Q176.65-9.2 177.23-7.75 177.82-6.3 178.8-5.21 179.77-4.13 181.2-3.49 182.63-2.86 184.58-2.86L184.58-2.86Q185.88-2.86 187.05-3.25 188.22-3.64 189.2-4.35 190.17-5.05 190.92-6.03 191.66-7.01 192.13-8.2L192.13-8.2 195.69-6.88Q194.88-4.96 193.48-3.55 192.08-2.15 190.31-1.23 188.54-0.32 186.55 0.12 184.56 0.56 182.6 0.56L182.6 0.56Q179.38 0.56 176.65-0.52 173.91-1.61 171.94-3.56 169.96-5.52 168.84-8.23 167.71-10.94 167.71-14.16L167.71-14.16Q167.71-17.38 168.84-20.09 169.96-22.8 171.94-24.76 173.91-26.71 176.65-27.8 179.38-28.88 182.6-28.88L182.6-28.88Q184.17-28.88 185.8-28.66 187.44-28.44 188.98-27.97 190.51-27.49 191.88-26.73 193.25-25.98 194.26-24.87 195.28-23.75 195.87-22.29 196.47-20.83 196.47-18.95ZM227.23-28.2L216.12 0 208.7 0 198.45-28.2 206.7-28.2 214.22-5.74 221.52-28.2 227.23-28.2Z" opacity="1" transform="matrix(1,0,0,1,0,0)" fill="black" class="wordmark-text-0" id="SvgjsPath1055"></path></svg></g></svg></g><g transform="matrix(1,0,0,1,163.31020799999996,99.41050954786515)"><svg viewBox="0 0 232.20979200000002 48.20323027544911" height="48.20323027544911" width="232.20979200000002"><g transform="matrix(1,0,0,1,0,0)"><svg width="232.20979200000002" viewBox="1.39 -21.25 104.37 21.67" height="48.20323027544911" data-palette-color="url(#39035a6b-4b96-455d-a53c-12f2611658d6)"><path d="M16.46 0L1.39 0 11.25-17.5 2.01-17.5 2.01-20.83 17.01-20.83 7.15-3.33 16.46-3.33 16.46 0ZM31.25 0.42L31.25 0.42Q28.23 0.42 25.73-1.04 23.23-2.5 21.75-4.97 20.28-7.43 20.28-10.42L20.28-10.42Q20.28-13.44 21.75-15.89 23.23-18.33 25.73-19.79 28.23-21.25 31.25-21.25L31.25-21.25Q34.3-21.25 36.79-19.79 39.27-18.33 40.74-15.89 42.22-13.44 42.22-10.42L42.22-10.42Q42.22-7.43 40.74-4.97 39.27-2.5 36.79-1.04 34.3 0.42 31.25 0.42ZM31.25-3.13L31.25-3.13Q33.26-3.13 34.89-4.11 36.53-5.1 37.5-6.75 38.47-8.4 38.47-10.42L38.47-10.42Q38.47-12.43 37.5-14.08 36.53-15.73 34.89-16.72 33.26-17.71 31.25-17.71L31.25-17.71Q29.23-17.71 27.6-16.72 25.97-15.73 25-14.08 24.03-12.43 24.03-10.42L24.03-10.42Q24.03-8.4 25-6.75 25.97-5.1 27.6-4.11 29.23-3.13 31.25-3.13ZM56.94 0.42L56.94 0.42Q53.92 0.42 51.42-1.04 48.92-2.5 47.44-4.97 45.97-7.43 45.97-10.42L45.97-10.42Q45.97-13.44 47.44-15.89 48.92-18.33 51.42-19.79 53.92-21.25 56.94-21.25L56.94-21.25Q60-21.25 62.48-19.79 64.96-18.33 66.44-15.89 67.91-13.44 67.91-10.42L67.91-10.42Q67.91-7.43 66.44-4.97 64.96-2.5 62.48-1.04 60 0.42 56.94 0.42ZM56.94-3.13L56.94-3.13Q58.95-3.13 60.59-4.11 62.22-5.1 63.19-6.75 64.16-8.4 64.16-10.42L64.16-10.42Q64.16-12.43 63.19-14.08 62.22-15.73 60.59-16.72 58.95-17.71 56.94-17.71L56.94-17.71Q54.93-17.71 53.29-16.72 51.66-15.73 50.69-14.08 49.72-12.43 49.72-10.42L49.72-10.42Q49.72-8.4 50.69-6.75 51.66-5.1 53.29-4.11 54.93-3.13 56.94-3.13ZM76.87 0L73.12 0 73.12-20.83 76.59-20.83 76.59-17.85Q77.74-19.55 79.49-20.4 81.24-21.25 83.19-21.25L83.19-21.25Q85.31-21.25 87.08-20.26 88.85-19.27 89.92-17.5L89.92-17.5Q91.14-19.38 93.07-20.31 94.99-21.25 97.15-21.25L97.15-21.25Q99.51-21.25 101.47-20.14 103.43-19.03 104.59-17.03 105.76-15.03 105.76-12.33L105.76-12.33 105.76 0 102.01 0 102.01-11.88Q102.01-14.72 100.39-16.2 98.78-17.67 96.66-17.67L96.66-17.67Q95.34-17.67 94.11-17.08 92.87-16.49 92.09-15.24 91.31-13.99 91.31-11.98L91.31-11.98 91.31 0 87.56 0 87.56-11.88Q87.56-13.85 86.78-15.14 86-16.42 84.77-17.07 83.53-17.71 82.21-17.71L82.21-17.71Q80.93-17.71 79.7-17.12 78.46-16.53 77.67-15.28 76.87-14.03 76.87-11.98L76.87-11.98 76.87 0Z" opacity="1" transform="matrix(1,0,0,1,0,0)" fill="black" class="slogan-text-1" id="SvgjsPath1054"></path></svg></g></svg></g></svg></g></svg></g><g><svg viewBox="0 0 214.48851839999995 214.48851839999995" height="214.48851839999995" width="214.48851839999995"><g><svg></svg></g><g id="SvgjsG1053"><svg viewBox="0 0 214.48851839999995 214.48851839999995" height="214.48851839999995" width="214.48851839999995"><g><rect width="195.02567135999996" height="195.02567135999996" x="9.731423519999993" y="9.731423519999993" fill="black"></rect><rect width="195.02567135999996" height="195.02567135999996" x="19.46284703999999" y="-3.552713678800501e-15" fill="black" opacity="0.5"></rect></g><g transform="matrix(1,0,0,1,27.80406719999999,27.80406719999999)"><svg viewBox="0 0 158.88038399999996 158.88038399999996" height="158.88038399999996" width="158.88038399999996"><g><svg xmlns="http://www.w3.org/2000/svg" xmlns:xlink="http://www.w3.org/1999/xlink" version="1.1" x="0" y="0" viewBox="0 0 512 512" enable-background="new 0 0 512 512" xml:space="preserve" height="158.88038399999996" width="158.88038399999996" class="icon-dxe-0" data-fill-palette-color="quaternary" id="SvgjsSvg1052"><path d="M480 0H32C14.313 0 0 14.328 0 32V480C0 497.688 14.313 512 32 512H480C497.688 512 512 497.687 512 480V32C512 14.328 497.688 0 480 0M432 448H160V464C160 472.844 152.844 480 144 480S128 472.844 128 464V448H80C71.156 448 64 440.844 64 432S71.156 416 80 416H128V400C128 391.156 135.156 384 144 384S160 391.156 160 400V416H432C440.844 416 448 423.156 448 432S440.844 448 432 448M480 352H32V32H480zM356.219 176.125C371.5 184.859 371.5 199.141 356.219 207.875L187.781 304.125C172.5 312.844 160 305.594 160 288V96C160 78.406 172.5 71.141 187.781 79.875z" fill="black"></path></svg></g></svg></g></svg></g></svg></g></svg></g><defs><mask></mask></defs></svg><rect width="395.5199999999999" height="134.87314111946338" fill="black" stroke="none" visibility="hidden"></rect></g></mask></svg><rect width="395.5199999999999" height="134.87314111946338" fill="black" stroke="none" visibility="hidden"></rect></g></mask></svg><rect width="395.5199999999999" height="134.87314111946338" fill="black" stroke="none" visibility="hidden"></rect></g></mask><linearGradient x1="0" x2="1" y1="0.578" y2="0.595" id="935052ae-4bd3-4cb1-9ea9-bf01487568c4"><stop stop-color="#6ee2f5" offset="0"></stop><stop stop-color="#6454f0" offset="1"></stop></linearGradient><rect width="395.5199999999999" height="134.87314111946338" fill="url(#935052ae-4bd3-4cb1-9ea9-bf01487568c4)" mask="url(#b6da04ac-58d4-48f3-9dad-1bdbf16c6169)" data-fill-palette-color="accent"></rect></svg><rect width="395.5199999999999" height="134.87314111946338" fill="none" stroke="none" visibility="hidden"></rect></g></svg></g></svg>